Coordinates
version=1
nRows=17
nColumns=24
inDegrees=yes

Units are S.I. units (second, meters, Newtons, ...)
Angles are in degrees.

endheader
time	pelvis_tilt	pelvis_list	pelvis_rotation	pelvis_tx	pelvis_ty	pelvis_tz	hip_flexion_r	hip_adduction_r	hip_rotation_r	knee_angle_r	ankle_angle_r	subtalar_angle_r	mtp_angle_r	hip_flexion_l	hip_adduction_l	hip_rotation_l	knee_angle_l	ankle_angle_l	subtalar_angle_l	mtp_angle_l	lumbar_extension	lumbar_bending	lumbar_rotation
      4.08000000	     17.67459350	     -1.53555210	      0.08801737	     -0.15640855	      0.96226312	     -0.01591730	      0.90075159	     -3.40713192	     -8.93461783	    -17.71832367	     18.07274623	      8.08063012	     27.82055656	    -28.67143431	      0.94631856	     -6.15750696	      3.25135166	     12.91197413	     19.98491460	      3.34234971	    -28.60954771	     -0.35542774	     -0.74482389
      4.08500000	     17.78870453	     -1.48248655	      0.22209699	     -0.15195964	      0.96177903	     -0.01576861	      0.55339862	     -3.28367095	     -8.70420613	    -15.65114595	     17.77091291	      8.19418341	     28.02960499	    -29.11276389	      0.92335722	     -6.13965959	      3.29773949	     13.10119815	     20.15434264	      3.37467881	    -28.72403794	     -0.35886995	     -0.85178694
      4.09000000	     17.87857439	     -1.44098001	      0.27933071	     -0.14751609	      0.96122063	     -0.01543259	      0.22094394	     -3.13553627	     -8.28940221	    -13.56172035	     17.30716363	      8.12307214	     29.02832552	    -29.50099365	      0.91753750	     -6.31229116	      3.27199852	     13.38613022	     20.52375014	      3.37777687	    -28.81332522	     -0.38926317	     -0.84374935
      4.09500000	     17.97363724	     -1.32095212	      0.43745501	     -0.14302724	      0.96064775	     -0.01532195	     -0.15221180	     -3.09712641	     -8.04930164	    -11.48095556	     16.73474575	      8.03332780	     31.54948125	    -29.90186726	      0.94151864	     -6.20630638	      3.27916455	     13.57874656	     20.61130208	      3.12830629	    -28.90382479	     -0.44241258	     -1.01139812
      4.10000000	     18.05691384	     -1.20247711	      0.56266874	     -0.13847769	      0.96000896	     -0.01514710	     -0.51055052	     -3.06770482	     -7.77400333	     -9.48305876	     16.35364796	      8.14662545	     31.56293383	    -30.29589012	      0.97577677	     -6.16688518	      3.28544199	     13.78517906	     20.77041088	      3.13594018	    -28.97478452	     -0.50693544	     -1.12724663
      4.10500000	     18.14138081	     -1.06366020	      0.66308799	     -0.13391002	      0.95932752	     -0.01491805	     -0.87128658	     -3.06631594	     -7.44966889	     -7.54246474	     15.92315816	      8.18024849	     31.65130000	    -30.68282751	      1.03757167	     -6.17317945	      3.26815401	     14.00108829	     20.98506355	      3.13686628	    -29.04534155	     -0.60060434	     -1.21890187
      4.11000000	     18.18847122	     -0.90078042	      0.69333218	     -0.12934486	      0.95857026	     -0.01456295	     -1.17457471	     -3.09755292	     -6.99336626	     -5.67729945	     15.40840434	      8.02394772	     32.13478660	    -31.01649163	      1.15330458	     -6.28884555	      3.21474675	     14.20893038	     21.31586546	      3.07127432	    -29.07555417	     -0.75069365	     -1.24900827
      4.11500000	     18.24202204	     -0.72096228	      0.80409171	     -0.12472337	      0.95779628	     -0.01437682	     -1.48910441	     -3.16479805	     -6.73834852	     -3.89841020	     14.77570231	      7.86158031	     34.59613732	    -31.35811966	      1.24335620	     -6.21829625	      3.16241871	     14.47912784	     21.48241222	      2.61487456	    -29.10768017	     -0.87049986	     -1.36766064
      4.12000000	     18.29325882	     -0.53069289	      0.89520118	     -0.12006716	      0.95699539	     -0.01417337	     -1.75995710	     -3.25757508	     -6.55804433	     -2.30676873	     14.37253700	      7.97817774	     34.60514183	    -31.70851453	      1.35481396	     -6.17473769	      3.13168932	     14.68267654	     21.64007718	      2.62128749	    -29.13496915	     -1.00407547	     -1.46580587
      4.12500000	     18.32986716	     -0.33100052	      0.96417480	     -0.11540311	      0.95617360	     -0.01391894	     -1.99069057	     -3.36498311	     -6.36274176	     -0.84206849	     13.96557676	      8.01758829	     34.68302661	    -32.03625465	      1.48174144	     -6.15471005	      3.08137355	     14.87720391	     21.82885022	      2.62469250	    -29.14683489	     -1.15666069	     -1.54680128
      4.13000000	     18.36380804	     -0.12695131	      1.03281333	     -0.11071146	      0.95534470	     -0.01366510	     -2.19257939	     -3.48212788	     -6.22754186	      0.47890854	     13.57930336	      8.07325742	     34.81320965	    -32.35671517	      1.61071590	     -6.13148474	      3.01740594	     15.06904126	     22.00798394	      2.62775235	    -29.15195224	     -1.30823874	     -1.62329189
      4.13500000	     18.33928562	      0.10979265	      1.05604393	     -0.10607471	      0.95443591	     -0.01337514	     -2.25150515	     -3.64823944	     -6.13661671	      1.56637019	     13.26802763	      8.28817499	     34.87904999	    -32.60617348	      1.79555233	     -6.09555035	      2.94194314	     15.26198476	     22.11803671	      2.64115825	    -29.10180426	     -1.50868014	     -1.68158275
      4.14000000	     18.39462063	      0.26813443	      1.11764481	     -0.10130668	      0.95363137	     -0.01301891	     -2.46380485	     -3.70503823	     -5.96156241	      2.69026905	     12.76296360	      7.92967902	     36.60261570	    -32.94210198	      1.87134837	     -6.17696730	      2.84417443	     15.50602219	     22.50649471	      2.55013713	    -29.12293904	     -1.61668244	     -1.71324178
      4.14500000	     18.45830099	      0.45437494	      1.19424748	     -0.09654713	      0.95287823	     -0.01277937	     -2.60555120	     -3.80585701	     -6.06060324	      3.52842346	     12.53514634	      8.21203003	     36.69878089	    -33.30769052	      1.97539722	     -6.10327474	      2.80003724	     15.60198690	     22.53365205	      2.55338851	    -29.15649663	     -1.73178633	     -1.77999400
      4.15000000	     18.49713409	      0.62912933	      1.25910088	     -0.09177579	      0.95210590	     -0.01247614	     -2.69028228	     -3.89040677	     -6.13775063	      4.21146809	     12.34797622	      8.42588885	     36.81214318	    -33.63191988	      2.06769449	     -6.07824921	      2.72015649	     15.75415353	     22.67634152	      2.57646214	    -29.16186423	     -1.84102021	     -1.83473035
      4.15500000	     18.56200392	      0.78034047	      1.32369348	     -0.08696718	      0.95137955	     -0.01215098	     -2.78384356	     -3.94478787	     -6.23902611	      4.75299372	     12.20378225	      8.64247227	     36.96301837	    -33.98976364	      2.13473318	     -6.08174413	      2.64701098	     15.90017628	     22.85047045	      2.61065087	    -29.19138289	     -1.92296766	     -1.88216519
      4.16000000	     18.62479982	      0.91544125	      1.39058080	     -0.08214164	      0.95067949	     -0.01179446	     -2.84732518	     -3.97763743	     -6.37417284	      5.13640911	     12.11084833	      8.89830095	     37.14879489	    -34.33871703	      2.18035032	     -6.10080356	      2.55870398	     16.04203727	     23.03611661	      2.65907247	    -29.21802864	     -1.98743650	     -1.92361411
